<?xml version="1.0" encoding="utf-8"?>
<!-- Generator: Adobe Illustrator 18.0.0, SVG Export Plug-In . SVG Version: 6.00 Build 0)  -->
<!DOCTYPE svg PUBLIC "-//W3C//DTD SVG 1.1//EN" "http://www.w3.org/Graphics/SVG/1.1/DTD/svg11.dtd">
<svg version="1.1" id="Layer_1" xmlns="http://www.w3.org/2000/svg" xmlns:xlink="http://www.w3.org/1999/xlink" x="0px" y="0px"
	 viewBox="0 0 512 512" enable-background="new 0 0 512 512" xml:space="preserve">
<path fill="#FFFFFF" d="M481.6,208.3L398.3,40.9c-2.7-5.4-8.2-8.9-14.3-8.9h-48c0-8.8-7.2-16-16-16H192c-8.8,0-16,7.2-16,16h-48
	c-6.1,0-11.6,3.4-14.3,8.8L29.9,208.4C13.2,209.6,0,223.1,0,240c0,17.7,14.3,32,32,32v192c0,17.7,14.3,32,32,32h384
	c17.7,0,32-14.3,32-32V272c17.7,0,32-14.3,32-32C512,222.9,498.5,209.2,481.6,208.3z M137.9,64H176c0,8.8,7.2,16,16,16h128
	c8.8,0,16-7.2,16-16h38.1l71.6,144H65.9L137.9,64z M112,448c0,8.8-7.2,16-16,16s-16-7.2-16-16V288c0-8.8,7.2-16,16-16s16,7.2,16,16
	V448z M176,448c0,8.8-7.2,16-16,16s-16-7.2-16-16V288c0-8.8,7.2-16,16-16s16,7.2,16,16V448z M240,448c0,8.8-7.2,16-16,16
	s-16-7.2-16-16V288c0-8.8,7.2-16,16-16s16,7.2,16,16V448z M304,448c0,8.8-7.2,16-16,16s-16-7.2-16-16V288c0-8.8,7.2-16,16-16
	s16,7.2,16,16V448z M368,448c0,8.8-7.2,16-16,16s-16-7.2-16-16V288c0-8.8,7.2-16,16-16s16,7.2,16,16V448z M432,448
	c0,8.8-7.2,16-16,16s-16-7.2-16-16V288c0-8.8,7.2-16,16-16s16,7.2,16,16V448z"/>
</svg>
